<?xml version="1.0" encoding="utf-8"?>
<!-- Generator: Adobe Illustrator 19.0.0, SVG Export Plug-In . SVG Version: 6.00 Build 0)  -->
<svg version="1.1" id="Layer_1" xmlns="http://www.w3.org/2000/svg" xmlns:xlink="http://www.w3.org/1999/xlink" x="0px" y="0px"
	 viewBox="-385 257 189 48" enable-background="new -385 257 189 48" xml:space="preserve">
<path fill="#FFFFFF" d="M-371.826,266.246c1.677-0.01,3.34,0.308,4.896,0.936c1.479,0.592,2.837,1.449,4.008,2.53
	c1.138,1.063,2.054,2.341,2.693,3.761c0.65,1.455,0.985,3.031,0.985,4.625c0,1.594-0.336,3.169-0.985,4.625
	c-0.645,1.417-1.56,2.694-2.693,3.761c-2.417,2.251-5.601,3.496-8.904,3.482h-8.026c-0.824,0.02-1.647-0.096-2.433-0.346
	c-0.609-0.199-1.158-0.549-1.594-1.018c-0.405-0.468-0.694-1.025-0.844-1.625c-0.189-0.708-0.282-1.438-0.277-2.17v-13.415
	c-0.005-0.731,0.088-1.46,0.277-2.167c0.156-0.599,0.454-1.151,0.869-1.611c0.444-0.46,0.99-0.809,1.594-1.018
	c0.784-0.26,1.607-0.382,2.433-0.36L-371.826,266.246z M-379.611,269.795c-0.168,0.007-0.334,0.04-0.493,0.097
	c-0.201,0.065-0.388,0.165-0.554,0.296c-0.172,0.142-0.317,0.315-0.426,0.509c-0.126,0.226-0.189,0.481-0.183,0.739v13.34
	c-0.009,0.269,0.054,0.536,0.183,0.772c0.112,0.197,0.261,0.37,0.437,0.512c0.163,0.131,0.351,0.225,0.554,0.277
	c0.16,0.049,0.325,0.077,0.493,0.083h7.578c1.201,0.009,2.393-0.207,3.515-0.637c1.064-0.413,2.042-1.023,2.881-1.796
	c0.821-0.73,1.487-1.619,1.957-2.613c0.465-1.015,0.706-2.119,0.706-3.235c0-1.117-0.241-2.22-0.706-3.235
	c-0.475-1-1.139-1.899-1.957-2.646c-1.747-1.601-4.035-2.48-6.404-2.463H-379.611z"/>
<path fill="#FFFFFF" d="M-334.604,266.246h3.778v18.167c0.005,0.737-0.135,1.468-0.412,2.15c-0.266,0.659-0.662,1.256-1.165,1.757
	c-0.49,0.511-1.076,0.919-1.724,1.201c-0.679,0.298-1.412,0.448-2.153,0.443c-0.352,0.002-0.704-0.026-1.052-0.083
	c-0.324-0.052-0.643-0.135-0.952-0.246c-0.558-0.169-1.081-0.436-1.544-0.789c-0.426-0.315-0.807-0.688-1.132-1.107
	c-0.279-0.369-0.537-0.753-0.772-1.151c-0.155-0.263-0.277-0.509-0.396-0.739c-0.119-0.23-0.207-0.432-0.293-0.606
	c-0.086-0.174-0.277-0.504-0.479-0.922l-0.739-1.478c-0.277-0.554-0.584-1.193-0.902-1.871c-0.318-0.678-0.653-1.384-1.002-2.07
	c-0.349-0.686-0.695-1.384-1.035-2.087c-0.34-0.703-0.656-1.337-0.952-1.937c-0.296-0.601-0.553-1.135-0.772-1.594
	c-0.219-0.46-0.396-0.83-0.526-1.085c-0.13-0.255-0.224-0.471-0.346-0.689c-0.122-0.219-0.235-0.415-0.343-0.592
	c-0.159-0.237-0.334-0.462-0.526-0.673c-0.112-0.133-0.252-0.24-0.41-0.312c-0.158-0.072-0.33-0.109-0.504-0.106
	c-0.515-0.001-1.011,0.197-1.384,0.553c-0.336,0.393-0.512,0.898-0.493,1.414v18.167h-3.781v-18.164
	c-0.041-1.447,0.49-2.852,1.478-3.911c0.509-0.529,1.122-0.948,1.8-1.231c0.678-0.282,1.407-0.422,2.141-0.411
	c0.738-0.012,1.473,0.099,2.175,0.329c0.695,0.229,1.319,0.637,1.807,1.182c0.379,0.393,0.719,0.823,1.016,1.281
	c0.221,0.327,0.44,0.689,0.659,1.082c0.219,0.393,0.448,0.83,0.689,1.315c0.286,0.592,0.691,1.414,1.215,2.466
	c0.524,1.052,1.07,2.152,1.638,3.302c0.57,1.151,1.112,2.258,1.625,3.321c0.513,1.063,0.924,1.893,1.234,2.491
	c0.091,0.14,0.168,0.288,0.23,0.443c0.027,0.09,0.071,0.173,0.13,0.246c0.177,0.307,0.324,0.581,0.443,0.83
	c0.119,0.249,0.235,0.459,0.346,0.656c0.066,0.089,0.141,0.202,0.23,0.346c0.091,0.146,0.196,0.283,0.313,0.41
	c0.122,0.133,0.266,0.245,0.426,0.329c0.171,0.089,0.361,0.133,0.553,0.13c0.285,0.001,0.567-0.054,0.83-0.163
	c0.211-0.09,0.4-0.225,0.553-0.396c0.337-0.391,0.514-0.895,0.495-1.411v-18.189"/>
<path fill="#FFFFFF" d="M-308.967,286.406c-0.072,0-0.141,0-0.21,0h-17.281v3.548h14.646c0.938-1.085,1.89-2.27,2.845-3.559"/>
<path fill="#FFFFFF" d="M-326.163,278.006c0.625,0.63,1.367,1.132,2.184,1.478c0.848,0.356,1.759,0.535,2.679,0.526h12.133
	c0.68-0.003,1.344,0.21,1.896,0.607c0.552,0.398,0.964,0.96,1.176,1.607c0.738-1.174,1.42-2.322,2.045-3.446
	c-0.105-0.119-0.208-0.238-0.321-0.352c-0.617-0.616-1.347-1.107-2.15-1.448c-0.837-0.353-1.737-0.531-2.646-0.526h-12.1
	c-0.423-0.017-0.839-0.118-1.223-0.299c-0.384-0.18-0.727-0.435-1.011-0.75c-0.282-0.304-0.511-0.654-0.675-1.035
	c-0.165-0.389-0.249-0.809-0.246-1.232c-0.005-0.434,0.079-0.864,0.246-1.265c0.164-0.381,0.392-0.731,0.675-1.035
	c0.578-0.63,1.38-1.008,2.233-1.052h17.115v-3.54h-17.159c-0.922-0.006-1.835,0.183-2.679,0.554
	c-0.809,0.353-1.548,0.848-2.184,1.461c-0.634,0.636-1.142,1.388-1.495,2.214c-0.37,0.85-0.558,1.768-0.553,2.696
	c-0.002,0.915,0.186,1.821,0.553,2.66c0.352,0.827,0.859,1.578,1.495,2.214"/>
<path fill="#FFFFFF" d="M-290.933,289.965v-16.819c-0.008-0.906,0.169-1.805,0.519-2.641c0.35-0.836,0.867-1.592,1.518-2.222
	c0.627-0.631,1.368-1.138,2.184-1.495c0.844-0.371,1.757-0.559,2.679-0.553h15.671v3.559h-15.441
	c-0.447,0.001-0.889,0.095-1.298,0.277c-0.612,0.263-1.134,0.698-1.504,1.251c-0.37,0.553-0.573,1.202-0.583,1.868v2.563h18.82
	v3.534h-18.82v10.678H-290.933z"/>
<path fill="#FFFFFF" d="M-265.737,269.924h3.745v-3.678h-3.745V269.924z M-265.737,289.965h3.745v-16.952h-3.745V289.965z"/>
<path fill="#FFFFFF" d="M-251.841,289.965c-0.915,0.003-1.821-0.186-2.659-0.553c-0.827-0.352-1.579-0.859-2.214-1.495
	c-0.635-0.615-1.138-1.352-1.478-2.167c-0.356-0.854-0.535-1.771-0.526-2.696v-16.808h3.744v16.786
	c-0.003,0.439,0.08,0.875,0.247,1.281c0.16,0.388,0.389,0.744,0.675,1.052c0.599,0.619,1.407,0.994,2.267,1.052l0.689,0.033v3.515
	h-0.756"/>
<path fill="#FFFFFF" d="M-240.573,289.965c-0.919,0.009-1.83-0.17-2.677-0.526c-0.817-0.345-1.559-0.848-2.183-1.478
	c-0.631-0.628-1.138-1.368-1.495-2.184c-0.371-0.844-0.559-1.757-0.554-2.679v-6.504h-1.627v-3.543h1.644v-4.935h3.778v4.935h5.15
	v3.543h-5.156v6.471c-0.011,0.426,0.064,0.849,0.222,1.245c0.158,0.396,0.395,0.755,0.697,1.055
	c0.284,0.315,0.627,0.571,1.011,0.751c0.383,0.181,0.799,0.283,1.223,0.3h2.662v3.548H-240.573z"/>
<path fill="#FFFFFF" d="M-231.8,283.494c0.041,0.367,0.152,0.723,0.326,1.049c0.171,0.321,0.381,0.619,0.626,0.888
	c0.311,0.319,0.685,0.572,1.098,0.741c0.412,0.169,0.855,0.253,1.302,0.244h13.697v3.548h-13.93
	c-0.924,0.008-1.84-0.171-2.693-0.526c-0.817-0.338-1.556-0.841-2.17-1.478c-0.633-0.637-1.14-1.389-1.494-2.214
	c-0.369-0.851-0.557-1.768-0.554-2.696v-3.139c-0.004-0.922,0.185-1.834,0.554-2.679c0.359-0.814,0.865-1.554,1.494-2.184
	c0.616-0.635,1.354-1.138,2.17-1.478c0.853-0.355,1.769-0.534,2.693-0.526h9.1c1.356-0.007,2.683,0.387,3.815,1.132
	c1.133,0.745,2.02,1.808,2.551,3.055c0.356,0.848,0.535,1.759,0.525,2.679v3.581H-231.8z M-230.842,277.579
	c-0.308,0.306-0.553,0.669-0.723,1.068c-0.182,0.408-0.276,0.851-0.277,1.298h15.408c-0.002-0.447-0.096-0.889-0.277-1.298
	c-0.17-0.399-0.415-0.762-0.722-1.068c-0.312-0.319-0.686-0.571-1.098-0.74c-0.413-0.169-0.856-0.253-1.302-0.245h-8.615
	c-0.446-0.008-0.888,0.076-1.299,0.245C-230.159,277.009-230.532,277.261-230.842,277.579z"/>
<path fill="#FFFFFF" d="M-196.748,273.052v3.543h-6.011c-0.447-0.008-0.89,0.075-1.302,0.244c-0.413,0.169-0.787,0.422-1.098,0.741
	c-0.307,0.306-0.553,0.669-0.722,1.068c-0.181,0.409-0.275,0.851-0.277,1.298v10.019h-3.731v-10.052
	c-0.002-0.916,0.186-1.823,0.554-2.662c0.348-0.821,0.843-1.571,1.461-2.214c0.641-0.639,1.404-1.143,2.243-1.484
	c0.838-0.341,1.737-0.511,2.642-0.5H-196.748z"/>
<path fill="#FFFFFF" d="M-306.8,262.131c3.213-2.364,6-3.258,7.689-2.15c3.634,2.38,0.816,13.105-6.294,23.954
	c-7.11,10.849-15.817,17.713-19.448,15.333c-1.691-1.107-1.984-4.021-1.107-7.91c-1.971,6.335-1.868,11.292,0.761,13.008
	c4.6,3.017,15.186-5.004,23.641-17.909c8.455-12.905,11.594-25.808,6.994-28.822C-297.194,255.912-301.777,257.794-306.8,262.131z"
	/>
</svg>
